<svg xmlns="http://www.w3.org/2000/svg" width="21" height="20.999" viewBox="0 0 21 20.999">
  <path id="Path_639" data-name="Path 639" d="M12.813,10.515l7.852-7.852a1.151,1.151,0,0,0,0-1.624L19.976.351a1.151,1.151,0,0,0-1.625,0L10.5,8.2,2.648.351a1.151,1.151,0,0,0-1.624,0l-.688.688a1.149,1.149,0,0,0,0,1.624l7.852,7.852L.336,18.367a1.152,1.152,0,0,0,0,1.625l.688.688a1.151,1.151,0,0,0,1.624,0L10.5,12.828l7.852,7.852a1.14,1.14,0,0,0,.812.335h0a1.14,1.14,0,0,0,.812-.335l.688-.688a1.152,1.152,0,0,0,0-1.624Z" transform="translate(0 -0.016)"/>
</svg>
