<svg xmlns="http://www.w3.org/2000/svg" xmlns:xlink="http://www.w3.org/1999/xlink" width="49.487" height="44.028" viewBox="0 0 49.487 44.028">
  <defs>
    <linearGradient id="linear-gradient" x1="0.5" x2="0.5" y2="1" gradientUnits="objectBoundingBox">
      <stop offset="0" stop-color="#8cc63f"/>
      <stop offset="1" stop-color="#1fb3b7"/>
    </linearGradient>
  </defs>
  <path id="heart_2_" data-name="heart (2)" d="M24.744,44.028a2.9,2.9,0,0,1-1.913-.719c-2-1.748-3.927-3.391-5.627-4.84l-.009-.008C12.209,34.213,7.9,30.544,4.908,26.929,1.56,22.889,0,19.058,0,14.872A15.467,15.467,0,0,1,3.926,4.309,13.307,13.307,0,0,1,13.825,0,12.448,12.448,0,0,1,21.6,2.684a15.908,15.908,0,0,1,3.144,3.282,15.91,15.91,0,0,1,3.144-3.282A12.448,12.448,0,0,1,35.663,0a13.308,13.308,0,0,1,9.9,4.309,15.467,15.467,0,0,1,3.925,10.564c0,4.185-1.559,8.016-4.908,12.057-3,3.615-7.3,7.283-12.285,11.532-1.7,1.451-3.634,3.1-5.638,4.849a2.9,2.9,0,0,1-1.913.718ZM13.825,2.9A10.44,10.44,0,0,0,6.057,6.274a12.582,12.582,0,0,0-3.158,8.6c0,3.52,1.308,6.668,4.241,10.207,2.835,3.421,7.052,7.015,11.935,11.176l.009.008c1.707,1.455,3.642,3.1,5.656,4.865,2.026-1.764,3.964-3.416,5.674-4.873,4.882-4.161,9.1-7.754,11.934-11.175,2.933-3.539,4.241-6.687,4.241-10.207a12.582,12.582,0,0,0-3.158-8.6A10.44,10.44,0,0,0,35.663,2.9a9.614,9.614,0,0,0-6,2.078,14.067,14.067,0,0,0-3.345,3.871,1.83,1.83,0,0,1-3.144,0,14.054,14.054,0,0,0-3.345-3.871,9.614,9.614,0,0,0-6-2.078Zm0,0" fill="url(#linear-gradient)"/>
</svg>
