<svg xmlns="http://www.w3.org/2000/svg" xmlns:xlink="http://www.w3.org/1999/xlink" width="48.011" height="51.44" viewBox="0 0 48.011 51.44">
  <defs>
    <linearGradient id="linear-gradient" x1="0.5" x2="0.5" y2="1" gradientUnits="objectBoundingBox">
      <stop offset="0" stop-color="#8cc63f"/>
      <stop offset="1" stop-color="#1fb3b7"/>
    </linearGradient>
  </defs>
  <g id="bladder_1_" data-name="bladder (1)" transform="translate(-17.067)">
    <g id="Group_1054" data-name="Group 1054" transform="translate(17.067 0)">
      <g id="Group_1053" data-name="Group 1053" transform="translate(0 0)">
        <path id="Path_604" data-name="Path 604" d="M87.128,85.334c-7.044,0-18.861,1.67-18.861,12.86,0,10.986,14.027,14.575,18.861,14.575s18.861-3.588,18.861-14.575C105.99,85.695,89.059,85.334,87.128,85.334Zm0,25.72c-3.726,0-13.457-2.278-16.332-8.879,3.113-1.553,4.71-2.266,8.616-2.266a14.379,14.379,0,0,1,4.843,1.232,15.846,15.846,0,0,0,5.445,1.34,12.966,12.966,0,0,0,4.874-1.24,13.986,13.986,0,0,1,5.414-1.332,16.316,16.316,0,0,1,3.977.8C101.994,108.444,91.118,111.054,87.128,111.054ZM104.242,99a16.927,16.927,0,0,0-4.253-.8,15.58,15.58,0,0,0-6.053,1.455,11.5,11.5,0,0,1-4.235,1.117,14.379,14.379,0,0,1-4.843-1.232,15.845,15.845,0,0,0-5.445-1.34,17.3,17.3,0,0,0-9.159,2.336,10.163,10.163,0,0,1-.271-2.336c0-9.7,10.743-11.145,17.147-11.145,1.755,0,17.147.313,17.147,11.145C104.275,98.468,104.262,98.735,104.242,99Z" transform="translate(-63.123 -76.76)" fill="url(#linear-gradient)"/>
        <path id="Path_605" data-name="Path 605" d="M65.078,5.144a12.225,12.225,0,0,0-.352-2.926,2.955,2.955,0,0,0-5.105-1.186,3,3,0,0,0-.677,2.428,10.738,10.738,0,0,1,.133,1.684c0,1.008-.309,2.2-2.45,4.1-4.735-3.064-11.008-4.1-15.555-4.1-3.88,0-10.734.538-15.822,3.839-1.89-1.766-2.182-2.931-2.182-3.839A10.737,10.737,0,0,1,23.2,3.46a3,3,0,0,0-.676-2.428,2.956,2.956,0,0,0-5.107,1.186,12.314,12.314,0,0,0-.351,2.926c0,3.236,2.59,6.1,4.225,7.588a14.76,14.76,0,0,0-2.511,8.7c0,10.29,9.066,14.8,14.33,16.544a4.414,4.414,0,0,0-1.47,3.389c0,4.115,3.529,7.992,6.456,8.326a3.4,3.4,0,0,0,5.949,0c2.927-.334,6.456-4.211,6.456-8.326a4.414,4.414,0,0,0-1.47-3.389c5.264-1.748,14.33-6.255,14.33-16.544a13.753,13.753,0,0,0-2.717-8.514C62.341,11.426,65.078,8.492,65.078,5.144Zm-4.287,0a12.346,12.346,0,0,0-.155-1.954,1.293,1.293,0,0,1,.289-1.045,1.241,1.241,0,0,1,2.137.482,10.542,10.542,0,0,1,.3,2.517c0,2.672-2.432,5.222-3.8,6.447a15.526,15.526,0,0,0-1.478-1.348C59.971,8.485,60.791,6.923,60.791,5.144Zm-42.01,0a10.585,10.585,0,0,1,.3-2.518,1.242,1.242,0,0,1,2.137-.481,1.294,1.294,0,0,1,.288,1.045,12.418,12.418,0,0,0-.155,1.954c0,1.7.753,3.2,2.481,4.871A14.118,14.118,0,0,0,22.372,11.4C20.111,9.331,18.782,7.036,18.782,5.144ZM33.356,41.367a2.843,2.843,0,0,1,1.9-2.757l.386.1a1.691,1.691,0,0,1,1.273,1.243c.071.319.134.646.192.979.02.114.035.232.053.347.035.22.071.439.1.663.02.149.035.3.053.449.023.193.047.385.067.579.017.165.03.331.044.5s.033.36.047.54.023.348.034.522.023.338.032.5.017.359.025.539c.007.156.015.314.02.468.007.183.011.361.017.541,0,.145.009.292.012.433,0,.177.007.348.01.52,0,.1,0,.2.005.3A7.615,7.615,0,0,1,33.356,41.367Zm11.16,6.465c0-.1,0-.2.005-.3,0-.172.006-.343.01-.52,0-.142.008-.289.012-.433.005-.179.01-.358.017-.541.006-.154.013-.312.02-.468.008-.179.015-.357.025-.539s.021-.336.031-.5.021-.347.034-.522.031-.36.047-.54.027-.331.044-.5c.02-.194.044-.386.067-.579.018-.15.033-.3.053-.449.03-.224.066-.443.1-.663.018-.115.033-.233.053-.347.057-.332.121-.66.192-.979A1.691,1.691,0,0,1,46.5,38.705l.386-.1a2.843,2.843,0,0,1,1.9,2.757A7.615,7.615,0,0,1,44.517,47.832Zm17.132-26.4c0,10.581-10.966,14.421-15.069,15.484-.16.041-.32.082-.478.12a3.414,3.414,0,0,0-2.549,2.539,43.411,43.411,0,0,0-.755,8.448,1.7,1.7,0,0,1-.032.277,2.021,2.021,0,0,1-.079.279c0,.007,0,.014,0,.02a1.716,1.716,0,0,1-3.222,0c0-.007,0-.014,0-.02a2.006,2.006,0,0,1-.079-.279,1.7,1.7,0,0,1-.032-.277,43.411,43.411,0,0,0-.755-8.448,3.414,3.414,0,0,0-2.548-2.539c-.156-.037-.314-.078-.472-.118-4.1-1.061-15.075-4.9-15.075-15.485C20.5,8.279,34.886,6.859,41.073,6.859c1.353,0,9.455.175,15.08,4.052.029.027.046.065.079.088a13.769,13.769,0,0,1,2.6,2.34c.02.024.049.033.071.053A12.158,12.158,0,0,1,61.649,21.434Z" transform="translate(-17.067 0)" fill="url(#linear-gradient)"/>
      </g>
    </g>
  </g>
</svg>
