<svg xmlns="http://www.w3.org/2000/svg" xmlns:xlink="http://www.w3.org/1999/xlink" width="34.723" height="57.094" viewBox="0 0 34.723 57.094">
  <defs>
    <linearGradient id="linear-gradient" x1="0.5" x2="0.5" y2="1" gradientUnits="objectBoundingBox">
      <stop offset="0" stop-color="#8cc63f"/>
      <stop offset="1" stop-color="#1fb3b7"/>
    </linearGradient>
  </defs>
  <g id="doll" transform="translate(-27.964 -4.754)">
    <path id="Path_600" data-name="Path 600" d="M60.841,34.81l-6.178-2.584a5.181,5.181,0,0,0-4.605-2.82h-1V27.72a11.818,11.818,0,0,0,7.984-9.891q1.311.832,2.694,1.892a.843.843,0,0,0,.514.175.854.854,0,0,0,.281-.048.845.845,0,0,0,.539-.6l1.175-4.885a.842.842,0,0,0-.492-.973,22.138,22.138,0,0,0-5.566-1.424,11.789,11.789,0,0,0-21.73,0A22.137,22.137,0,0,0,28.9,13.391a.842.842,0,0,0-.492.973L29.58,19.25a.845.845,0,0,0,.539.6.854.854,0,0,0,.281.048.843.843,0,0,0,.514-.175q1.38-1.06,2.694-1.892a11.818,11.818,0,0,0,7.984,9.893v1.686h-1a5.181,5.181,0,0,0-4.605,2.82L29.812,34.81a3.011,3.011,0,1,0,2.328,5.554l3.275-1.37V43.1a23.99,23.99,0,0,1-.149,2.646c-.55,4.84-.977,8.041-1.024,8.391a.843.843,0,0,0,.829.955,6.591,6.591,0,0,1,.683.036l-.438,3.315a3.011,3.011,0,1,0,5.97.787l.438-3.314a7.894,7.894,0,0,0,1.315-.4,6.306,6.306,0,0,1,4.568,0,7.813,7.813,0,0,0,1.322.4l.437,3.312a3.011,3.011,0,1,0,5.97-.788L54.9,55.128c.2-.021.427-.034.683-.036a.843.843,0,0,0,.827-.956c-.048-.349-.474-3.551-1.024-8.389a24.046,24.046,0,0,1-.149-2.65v-4.1l3.273,1.37a3.012,3.012,0,1,0,2.332-5.554Zm-.4-20.119-.7,2.921c-.9-.65-1.783-1.226-2.636-1.73a11.742,11.742,0,0,0-.317-2.13,21.611,21.611,0,0,1,3.655.939ZM45.327,6.438a10.118,10.118,0,0,1,10.055,9.151c-2.053-.289-6.906-1.237-9.44-3.945a.867.867,0,0,0-1.231,0c-2.534,2.708-7.387,3.656-9.44,3.945A10.118,10.118,0,0,1,45.327,6.438ZM30.218,14.691a21.613,21.613,0,0,1,3.655-.939,11.744,11.744,0,0,0-.317,2.13q-1.281.755-2.636,1.73Zm5.043,2.6c1.959-.251,6.949-1.136,10.066-3.9,3.117,2.765,8.107,3.65,10.065,3.9a10.093,10.093,0,0,1-20.131,0ZM45.327,28.332a11.8,11.8,0,0,0,2.048-.182v1.965a.755.755,0,0,0-.01.087,2.043,2.043,0,0,1-4.079,0,.491.491,0,0,0-.008-.07V28.15a11.808,11.808,0,0,0,2.049.182ZM31.491,38.809a1.325,1.325,0,1,1-1.025-2.444l4.965-2.078c-.006.1-.015.2-.015.3v2.58Zm7.621,21.078a1.326,1.326,0,0,1-2.12-1.226l.41-3.1a7.071,7.071,0,0,0,2.606.492l-.39,2.96a1.313,1.313,0,0,1-.506.877Zm6.215-6.482a7.2,7.2,0,0,0-2.875.536,5.469,5.469,0,0,1-2.276.428,5.535,5.535,0,0,1-2.287-.428c-.271-.1-.564-.207-.9-.3a.88.88,0,0,0-.172-.042h0a6.4,6.4,0,0,0-.775-.14c.172-1.325.508-3.992.911-7.527a25.9,25.9,0,0,0,.159-2.835V34.586a3.473,3.473,0,0,1,.279-1.368c0-.008.008-.014.011-.022a3.5,3.5,0,0,1,3.2-2.1h1.143a3.728,3.728,0,0,0,7.179,0h1.141a3.5,3.5,0,0,1,3.2,2.1c0,.008.007.015.011.023a3.469,3.469,0,0,1,.279,1.368V43.1a25.972,25.972,0,0,0,.159,2.837c.4,3.533.739,6.2.911,7.524a6.481,6.481,0,0,0-.9.169c-.015,0-.032.006-.048.012a9.643,9.643,0,0,0-.92.3,6.292,6.292,0,0,1-4.559,0,7.208,7.208,0,0,0-2.876-.535Zm7.2,6.745a1.321,1.321,0,0,1-1.485-1.139l-.39-2.958a7.052,7.052,0,0,0,2.605-.493l.411,3.1a1.328,1.328,0,0,1-1.145,1.487ZM60.9,38.1a1.327,1.327,0,0,1-1.735.71l-3.924-1.643v-2.58c0-.1-.009-.2-.015-.3l4.963,2.078A1.326,1.326,0,0,1,60.9,38.1Z" transform="translate(0 0)" fill="url(#linear-gradient)"/>
    <path id="Path_601" data-name="Path 601" d="M63.715,41.021a.844.844,0,1,0-1.617-.482,1.862,1.862,0,0,1-3.313,0,.844.844,0,1,0-1.617.482,3.526,3.526,0,0,0,6.547,0Z" transform="translate(-15.115 -18.231)" fill="url(#linear-gradient)"/>
    <path id="Path_602" data-name="Path 602" d="M69.327,31.915a.842.842,0,0,0,1.151-.313.557.557,0,0,1,1,0,.843.843,0,1,0,1.464-.836,2.242,2.242,0,0,0-3.928,0,.842.842,0,0,0,.314,1.149Z" transform="translate(-21.214 -12.878)" fill="url(#linear-gradient)"/>
    <path id="Path_603" data-name="Path 603" d="M54.209,31.914a.842.842,0,0,0,.314-1.15,2.242,2.242,0,0,0-3.928,0,.843.843,0,1,0,1.464.836.557.557,0,0,1,1,0,.842.842,0,0,0,1.151.313Z" transform="translate(-11.669 -12.877)" fill="url(#linear-gradient)"/>
  </g>
</svg>
