<svg xmlns="http://www.w3.org/2000/svg" xmlns:xlink="http://www.w3.org/1999/xlink" width="31.072" height="43.736" viewBox="0 0 31.072 43.736">
  <defs>
    <linearGradient id="linear-gradient" x1="0.5" x2="0.5" y2="1" gradientUnits="objectBoundingBox">
      <stop offset="0" stop-color="#8cc63f"/>
      <stop offset="1" stop-color="#1fb3b7"/>
    </linearGradient>
  </defs>
  <g id="neck" transform="translate(-74.16 0)">
    <path id="Path_567" data-name="Path 567" d="M105.027,20.62c-2.367-4.416-2.658-4.449-2.6-5.167a11.512,11.512,0,0,0-1.2-6.4c1.454-1.922.2-4.146-1.564-5.8-4.379-4.12-16.57-6.005-23.529,4.77-6.224,9.638,4.019,25.218,7.509,26.863-.029,3.538-.266,8.072-.269,8.12a.683.683,0,0,0,.682.719c8.155-.073,7.926.164,8.289-.2a.683.683,0,0,0,.2-.49c-.085-5.649,1.288-9.085,2.113-10.631a1.176,1.176,0,0,1,.954-.622c3.676-.277,5.917-.877,6.661-1.783,1.077-1.314.766-4.917.583-6.4L104.3,22.9a1.645,1.645,0,0,0,.73-2.28ZM77.273,8.765C83.8-1.347,95.04.789,98.718,4.249c1.367,1.286,1.958,2.457,1.708,3.387a1.929,1.929,0,0,1-.54.867,3.618,3.618,0,0,1-1.943.859c-1.509.321-4.034.859-5.156,2.6a3.9,3.9,0,0,0-.436,3.057c.488,2.2,1.35,4.662,1.14,5.394-1.505.062-4.548-7.914-8.327-4.182-2.39,2.36-.514,6.114,2.191,7.841A7.643,7.643,0,0,0,84.3,26.021c-1.353,1.631-.232,5.7-.261,7.539-3.348-2.1-12.258-16.293-6.768-24.795Zm26.435,12.9-1.9.908a.683.683,0,0,0-.382.716,23.562,23.562,0,0,1,.222,2.483H99.209a.683.683,0,0,0,0,1.366h2.434a3.9,3.9,0,0,1-.441,1.991c-.346.422-2.048,1.012-5.707,1.287a2.536,2.536,0,0,0-2.056,1.341,22.756,22.756,0,0,0-2.277,10.6h-6.4c.069-1.448.216-4.81.236-7.553.979-.927-.116-3.94.01-6.585.05-1.053.27-1.312.676-1.668a9.652,9.652,0,0,1,2.993-1.511c.532-.189,1.136-.358,1.131-.94a.739.739,0,0,0-.686-.729c-1.708-.281-5.169-4.027-3-6.168,1.377-1.36,2.448-.217,4.266,2.123.9,1.153,1.918,2.633,3.318,2.436a1.277,1.277,0,0,0,.788-.4c.978-1.075-.124-3.545-.811-6.637-.6-2.681,1.831-3.451,4.543-4.028a5.244,5.244,0,0,0,1.954-.706,10.463,10.463,0,0,1,.878,5.361,2.75,2.75,0,0,0,.34,1.54l2.433,4.389A.277.277,0,0,1,103.708,21.667Z" transform="translate(0 0)" fill="url(#linear-gradient)"/>
    <path id="Path_568" data-name="Path 568" d="M221.153,218.419a3.712,3.712,0,0,1-1.841-2.026.683.683,0,0,0-1.284.465,5.048,5.048,0,0,0,2.667,2.848.683.683,0,0,0,.459-1.287Z" transform="translate(-131.548 -197.507)" fill="url(#linear-gradient)"/>
    <path id="Path_569" data-name="Path 569" d="M305.891,463.76l-1.36-.438.121-.089a.683.683,0,0,0-.812-1.1l-1.19.88a.683.683,0,0,0-.245.756l.449,1.409a.683.683,0,1,0,1.3-.415l-.046-.144,1.362.439a.683.683,0,0,0,.419-1.3Z" transform="translate(-208.728 -422.557)" fill="url(#linear-gradient)"/>
    <path id="Path_570" data-name="Path 570" d="M328.592,410.078l-1.093-.918.146-.037a.683.683,0,0,0-.338-1.324l-1.435.367a.683.683,0,0,0-.512.607l-.117,1.473a.683.683,0,1,0,1.362.109l.012-.152,1.1.921a.683.683,0,0,0,.879-1.046Z" transform="translate(-229.645 -372.963)" fill="url(#linear-gradient)"/>
    <path id="Path_571" data-name="Path 571" d="M367.878,372.136l-1.44-.345a.683.683,0,0,0-.735.3l-.794,1.248a.683.683,0,0,0,1.152.734l.083-.13.537,1.325a.683.683,0,1,0,1.266-.513l-.536-1.322.149.036a.683.683,0,0,0,.319-1.328Z" transform="translate(-265.827 -340.031)" fill="url(#linear-gradient)"/>
    <path id="Path_572" data-name="Path 572" d="M108.069,193.2a.683.683,0,1,0-1.356.167c.556,4.5,2.009,6.983,3.13,8.277a.683.683,0,1,0,1.032-.895C110.059,199.808,108.609,197.574,108.069,193.2Z" transform="translate(-29.769 -176.157)" fill="url(#linear-gradient)"/>
    <path id="Path_573" data-name="Path 573" d="M104.812,164.7a.683.683,0,1,0-.685-.683A.682.682,0,0,0,104.812,164.7Z" transform="translate(-27.408 -149.387)" fill="url(#linear-gradient)"/>
  </g>
</svg>
