<svg xmlns="http://www.w3.org/2000/svg" xmlns:xlink="http://www.w3.org/1999/xlink" width="39.998" height="39.998" viewBox="0 0 39.998 39.998">
  <defs>
    <linearGradient id="linear-gradient" x1="0.5" x2="0.5" y2="1" gradientUnits="objectBoundingBox">
      <stop offset="0" stop-color="#8cc63f"/>
      <stop offset="1" stop-color="#1fb3b7"/>
    </linearGradient>
  </defs>
  <g id="homosexual" transform="translate(-1.998 -1.998)">
    <path id="Path_574" data-name="Path 574" d="M38.535,42a.571.571,0,0,1-.4-.167l-2.485-2.485-2.484,2.485a.571.571,0,0,1-.808,0l-2.408-2.407a.571.571,0,0,1,0-.808l2.486-2.485-7.063-7.061a14.87,14.87,0,1,1,3.7-3.7l7.062,7.061,2.485-2.485a.571.571,0,0,1,.808,0l2.407,2.407a.571.571,0,0,1,0,.808l-2.485,2.485,2.485,2.485a.571.571,0,0,1,0,.808l-2.889,2.889A.571.571,0,0,1,38.535,42Zm-7.377-2.979,1.6,1.6,2.485-2.485a.571.571,0,0,1,.808,0l2.485,2.485,2.081-2.081-2.486-2.483a.571.571,0,0,1,0-.808l2.485-2.485-1.6-1.6-2.485,2.485a.571.571,0,0,1-.808,0l-7.809-7.811a.571.571,0,0,1-.053-.747,13.726,13.726,0,1,0-2.775,2.775.571.571,0,0,1,.747.053l7.81,7.809a.571.571,0,0,1,0,.808Z" fill="url(#linear-gradient)"/>
    <path id="Path_575" data-name="Path 575" d="M19.944,30.719a10.78,10.78,0,1,1,7.626-3.154,10.78,10.78,0,0,1-7.626,3.154Zm0-20.417a9.638,9.638,0,1,0,6.818,2.82,9.638,9.638,0,0,0-6.818-2.82Z" transform="translate(-3.074 -3.069)" fill="url(#linear-gradient)"/>
  </g>
</svg>
