<svg xmlns="http://www.w3.org/2000/svg" xmlns:xlink="http://www.w3.org/1999/xlink" width="43.672" height="43.672" viewBox="0 0 43.672 43.672">
  <defs>
    <linearGradient id="linear-gradient" x1="0.5" x2="0.5" y2="1" gradientUnits="objectBoundingBox">
      <stop offset="0" stop-color="#8cc63f"/>
      <stop offset="1" stop-color="#1fb3b7"/>
    </linearGradient>
  </defs>
  <path id="knee" d="M44.053,34.723a2.1,2.1,0,0,0-1.494-.618h-.28a5.356,5.356,0,0,1-5.355-5.355V8.919A7.919,7.919,0,0,0,29,1H1V2.409H27.062v.533A7.855,7.855,0,0,0,29.075,8.2a7.876,7.876,0,0,0-3.592-.864H1V8.748H23.54v.533A7.919,7.919,0,0,0,31.46,17.2h.533V35.089a6.764,6.764,0,0,0,6.764,6.764h.28a.705.705,0,0,1,0,1.41H26.443a2.9,2.9,0,0,1-2.9-2.9,2.473,2.473,0,0,1,.73-1.761l.473-.473a5.479,5.479,0,0,0,1.615-3.9,7.388,7.388,0,0,0-.221-1.8l-.888-3.552a33.65,33.65,0,0,1-1-8.155v-2.3c.535-.266,1.066-.54,1.591-.831l.865-.48-.685-1.231-.865.48a36.548,36.548,0,0,1-11.422,4.052l-2.588.456a36.671,36.671,0,0,1-6.366.558H1v1.409H4.775a38.09,38.09,0,0,0,6.61-.579l2.588-.456a37.953,37.953,0,0,0,8.863-2.714v1.636a35.076,35.076,0,0,0,1.046,8.5l.888,3.552a5.962,5.962,0,0,1,.18,1.455,4.079,4.079,0,0,1-1.2,2.9l-.473.473a3.874,3.874,0,0,0-1.143,2.758,4.312,4.312,0,0,0,4.312,4.312H39.036a2.114,2.114,0,1,0,0-4.228h-.28a5.338,5.338,0,0,1-4.248-2.112h8.05a2.114,2.114,0,0,0,1.495-3.609ZM28.471,2.409H29a6.51,6.51,0,0,1,6.511,6.511v.533h-.533a6.51,6.51,0,0,1-6.511-6.511ZM31.46,15.792a6.51,6.51,0,0,1-6.511-6.511V8.748h.533a6.5,6.5,0,0,1,6.3,4.9,5.265,5.265,0,0,1-3.168-1.52l-1,1a6.659,6.659,0,0,0,4.363,1.948c0,.063.009.126.009.19v.533Zm11.1,21.132H33.739a5.332,5.332,0,0,1-.337-1.834V15.259A7.855,7.855,0,0,0,31.389,10a7.876,7.876,0,0,0,3.592.864h.533V28.75a6.764,6.764,0,0,0,6.764,6.764h.28a.705.705,0,0,1,0,1.41Z" transform="translate(-1 -1)" fill="url(#linear-gradient)"/>
</svg>
