<svg xmlns="http://www.w3.org/2000/svg" xmlns:xlink="http://www.w3.org/1999/xlink" width="41.399" height="43.208" viewBox="0 0 41.399 43.208">
  <defs>
    <linearGradient id="linear-gradient" x1="0.5" x2="0.5" y2="1" gradientUnits="objectBoundingBox">
      <stop offset="0" stop-color="#8cc63f"/>
      <stop offset="1" stop-color="#1fb3b7"/>
    </linearGradient>
  </defs>
  <g id="_023---Moisturising-Face" data-name="023---Moisturising-Face" transform="translate(-0.257)">
    <path id="Shape" d="M6.8,29.858,5.016,25.7A2.485,2.485,0,0,0,.469,27.708c3.282,7.219,3.441,8,4.9,9.455L11.2,43a.72.72,0,0,0,.509.211h7.807a.72.72,0,0,0,.72-.72A18.153,18.153,0,0,0,20,38.12a10.149,10.149,0,0,0,1.917,0,17.348,17.348,0,0,0-.238,4.367.72.72,0,0,0,.72.72h7.81A.72.72,0,0,0,30.714,43l5.833-5.833c1.453-1.454,1.569-2.139,4.9-9.455A2.485,2.485,0,0,0,36.9,25.7l-1.784,4.158a3.657,3.657,0,0,0-2.867-.564,21.6,21.6,0,0,0,.847-2.506c1.429-.288,4.892-1.543,4.892-6.985,0-1.844-.321-4.117-2.155-4.367A19.578,19.578,0,0,0,38.742,1.878L38.454.564A.72.72,0,0,0,37.748,0H4.163a.72.72,0,0,0-.7.564l-.3,1.368A19.548,19.548,0,0,0,6.083,15.443c-1.816.271-2.131,2.537-2.131,4.363,0,5.444,3.466,6.7,4.9,6.985A21.78,21.78,0,0,0,9.7,29.3a3.65,3.65,0,0,0-2.9.554Zm12,11.909H12L6.387,36.145c-1.176-1.173-1.175-1.484-4.606-9.033a1.045,1.045,0,0,1,1.912-.844c2.917,6.808,1.783,5.15,7.5,10.874a.72.72,0,1,0,1.018-1.018C8.27,32.18,8.083,32.07,7.482,31.149a2.183,2.183,0,0,1,2.783,0,17.144,17.144,0,0,0,5.117,3.241c1.684.56,3.413,2.742,3.413,5.8Zm.689-5.167a6.437,6.437,0,0,0-3.646-3.582,14.152,14.152,0,0,1-3.889-2.362c-2.474-4.384-2.793-9.668-2.8-14.7,1.526-2.689,5.528-8.891,11.8-12.675C27.243,7.091,31.253,13.3,32.784,16c-.012,5.113-.317,10.154-2.759,14.609a14.312,14.312,0,0,1-3.951,2.41A6.444,6.444,0,0,0,22.425,36.6a9.649,9.649,0,0,1-2.941-.005Zm14.945-5.454c-.6.917-.772,1.014-4.733,4.975a.72.72,0,0,0,1.018,1.018c5.666-5.665,4.585-4.059,7.5-10.87a1.045,1.045,0,0,1,1.912.844c-3.38,7.437-3.4,7.831-4.6,9.033l-5.621,5.621H23.116V40.182a6.926,6.926,0,0,1,1.433-4.329c1.689-2.111,2.227-.61,7.1-4.709a2.183,2.183,0,0,1,2.783,0ZM36.544,19.8c0,3.626-1.758,4.923-3.065,5.389a41.406,41.406,0,0,0,.726-7.778c.666-.473,1.257-.67,1.584-.512.176.085.755.547.755,2.9ZM37.171,1.44a17.867,17.867,0,0,1-2.952,13.809C34.151,9.871,32.73,6.186,29.874,4A.72.72,0,0,0,29,5.145c2.082,1.592,3.275,4.2,3.647,7.885-2.888-4.385-7.347-9.057-12-11.59ZM4.74,1.44h9.822a18.752,18.752,0,0,0-4.249,3.871.72.72,0,0,0,1.125.9A17.416,17.416,0,0,1,17.377,1.5a22.618,22.618,0,0,1,2.145.975A37.447,37.447,0,0,0,7.805,15.41,17.821,17.821,0,0,1,4.74,1.44ZM5.393,19.8c0-2.357.576-2.819.756-2.9.321-.155.924.045,1.584.512a41.417,41.417,0,0,0,.727,7.782C7.153,24.73,5.393,23.433,5.393,19.8Z" transform="translate(0 0)" fill="url(#linear-gradient)"/>
    <path id="Shape-2" data-name="Shape" d="M17.04,21.045a3.15,3.15,0,0,1,2.418-.171l2.793.931a.721.721,0,0,0,.455-1.368l-2.793-.929a4.581,4.581,0,0,0-3.517.25.72.72,0,1,0,.644,1.288Z" transform="translate(-4.404 -5.393)" fill="url(#linear-gradient)"/>
    <path id="Shape-3" data-name="Shape" d="M32.721,21.841a18.535,18.535,0,0,0,3.024-.968,3.143,3.143,0,0,1,2.418.171.72.72,0,1,0,.644-1.288,4.584,4.584,0,0,0-3.518-.25l-2.793.931a.72.72,0,0,0,.224,1.4Z" transform="translate(-8.886 -5.393)" fill="url(#linear-gradient)"/>
    <path id="Shape-4" data-name="Shape" d="M21.882,26.21a.72.72,0,0,0-.912-.451,5.221,5.221,0,0,1-4.378-.614.72.72,0,0,0-.936.065,1.79,1.79,0,0,1-.936.511.72.72,0,1,0,0,1.44,2.684,2.684,0,0,0,1.483-.545c.109.065.216.122.327.178a1.275,1.275,0,0,1-.369.367.72.72,0,0,0-.72.72c0,.885,1.33,1.224,2.5-.59a7.07,7.07,0,0,0,3.493-.169A.72.72,0,0,0,21.882,26.21Z" transform="translate(-3.846 -6.998)" fill="url(#linear-gradient)"/>
    <path id="Shape-5" data-name="Shape" d="M38.328,25.144a5.215,5.215,0,0,1-4.377.614.72.72,0,0,0-.465,1.363,7.057,7.057,0,0,0,3.493.169c.366.568.993,1.31,1.781,1.31a.732.732,0,0,0,.736-.72.7.7,0,0,0-.7-.72,1.187,1.187,0,0,1-.4-.372c.108-.055.216-.112.324-.176a2.684,2.684,0,0,0,1.483.549.72.72,0,1,0,0-1.44,1.787,1.787,0,0,1-.931-.509A.72.72,0,0,0,38.328,25.144Z" transform="translate(-9.164 -6.997)" fill="url(#linear-gradient)"/>
    <path id="Shape-6" data-name="Shape" d="M25.32,34.319a4.6,4.6,0,0,0,5.12,0,.72.72,0,1,0-.8-1.2,3.169,3.169,0,0,1-3.521,0,.72.72,0,0,0-.8,1.2Z" transform="translate(-6.925 -9.236)" fill="url(#linear-gradient)"/>
    <path id="Shape-7" data-name="Shape" d="M31.641,40.016a.874.874,0,0,0-.936-.864c-.6,0-2.364-1.152-3.385-1.152s-2.777,1.152-3.381,1.152a.875.875,0,0,0-.94.864c0,1.016,2.034,2.3,4.321,2.3s4.321-1.289,4.321-2.3Zm-4.321-.576a13.528,13.528,0,0,1,2.25.884,4.834,4.834,0,0,1-4.5,0A13.384,13.384,0,0,1,27.321,39.44Z" transform="translate(-6.365 -10.636)" fill="url(#linear-gradient)"/>
    <path id="Shape-8" data-name="Shape" d="M29.16,46H27.72a.72.72,0,1,0,0,1.44h1.44a.72.72,0,1,0,0-1.44Z" transform="translate(-7.485 -12.875)" fill="url(#linear-gradient)"/>
    <circle id="Oval" cx="0.72" cy="0.72" r="0.72" transform="translate(7.993 7.201)" fill="url(#linear-gradient)"/>
  </g>
</svg>
