<svg xmlns="http://www.w3.org/2000/svg" xmlns:xlink="http://www.w3.org/1999/xlink" width="39.443" height="38.998" viewBox="0 0 39.443 38.998">
  <defs>
    <linearGradient id="linear-gradient" x1="0.5" x2="0.5" y2="1" gradientUnits="objectBoundingBox">
      <stop offset="0" stop-color="#8cc63f"/>
      <stop offset="1" stop-color="#1fb3b7"/>
    </linearGradient>
  </defs>
  <g id="back" transform="translate(-1.658 -2)">
    <path id="Path_565" data-name="Path 565" d="M1.881,40.317A.65.65,0,0,0,2.53,41H7.08a.65.65,0,0,0,.644-.562c.169-1.241,1.449-10.657,1.842-14.331.319,1.55.609,2.833.8,3.4.505,1.517.616,8.342.616,10.844a.65.65,0,0,0,.65.65h19.5a.65.65,0,0,0,.65-.65c0-2.5.111-9.326.616-10.844.189-.566.478-1.849.8-3.4.392,3.674,1.673,13.09,1.842,14.331a.651.651,0,0,0,.644.562h4.55a.65.65,0,0,0,.649-.681l-.647-13.59c.236-1.745,1.89-14.6-.095-17.912-1.323-2.209-6.511-2.717-10.3-3.089a18.247,18.247,0,0,1-2.967-.409c-.706-.353-.939-1.951-.941-2.669A.651.651,0,0,0,25.279,2h-7.8a.65.65,0,0,0-.65.65c0,.717-.23,2.313-.941,2.668a18.247,18.247,0,0,1-2.967.409c-3.788.371-8.976.88-10.3,3.088-1.985,3.308-.331,16.167-.095,17.912ZM3.738,9.483c.987-1.647,6.2-2.157,9.311-2.463a13.144,13.144,0,0,0,3.422-.54c1.195-.6,1.53-2.243,1.623-3.181h6.572c.093.938.428,2.584,1.623,3.181a13.144,13.144,0,0,0,3.422.54c3.113.305,8.324.816,9.311,2.463,1.5,2.5.447,13.212-.087,17.127a.673.673,0,0,0-.005.119L39.547,39.7h-3.3c-.585-4.313-1.867-13.965-1.867-14.949,0-.636-.139-2.176-.26-3.395.478-2.553.865-4.742.9-4.942l-1.28-.226c-.02.11-1.949,11.024-2.576,12.907-.583,1.749-.669,8.376-.682,10.605h-18.2c-.013-2.229-.1-8.856-.682-10.605C10.969,27.21,9.039,16.3,9.02,16.186l-1.28.226c.035.2.422,2.389.9,4.942-.121,1.219-.26,2.758-.26,3.395,0,.984-1.282,10.636-1.867,14.949h-3.3L3.83,26.73a.673.673,0,0,0-.005-.119C3.291,22.7,2.235,11.989,3.737,9.483Z" transform="translate(0 0)" fill="url(#linear-gradient)"/>
    <path id="Path_566" data-name="Path 566" d="M25.3,30.75h2.6V37.9a.65.65,0,0,0,.471.625.642.642,0,0,0,.179.025.649.649,0,0,0,.551-.305l6.5-10.4a.65.65,0,0,0-.551-.995H32.8l2.194-4.936A.65.65,0,0,0,34.4,21H24.65a.65.65,0,0,0-.648.7l.65,8.45A.65.65,0,0,0,25.3,30.75Zm8.1-8.45-2.194,4.936a.65.65,0,0,0,.594.914h2.077L29.2,35.633V30.1a.65.65,0,0,0-.65-.65H25.9l-.55-7.15Z" transform="translate(-7.82 -6.651)" fill="url(#linear-gradient)"/>
  </g>
</svg>
