<svg xmlns="http://www.w3.org/2000/svg" xmlns:xlink="http://www.w3.org/1999/xlink" width="48.266" height="48.246" viewBox="0 0 48.266 48.246">
  <defs>
    <linearGradient id="linear-gradient" x1="0.5" x2="0.5" y2="1" gradientUnits="objectBoundingBox">
      <stop offset="0" stop-color="#8cc63f"/>
      <stop offset="1" stop-color="#1fb3b7"/>
    </linearGradient>
  </defs>
  <g id="muscle" transform="translate(-0.001 -0.11)">
    <g id="Group_1015" data-name="Group 1015" transform="translate(0.001 0.11)">
      <path id="Path_556" data-name="Path 556" d="M47.561,1.434l-.64-.64a2.471,2.471,0,0,0-3.414,0L41.063,3.239c-2.376,2.376-5.228,3.319-8.529,4.411-4.605,1.523-9.825,3.25-15.773,9.2s-7.675,11.168-9.2,15.773c-1.092,3.3-2.036,6.153-4.411,8.529L.707,43.595a2.416,2.416,0,0,0,0,3.414l.641.641a2.413,2.413,0,0,0,3.413,0L7.205,45.2c2.376-2.376,5.228-3.319,8.529-4.411,4.605-1.523,9.825-3.25,15.773-9.2s7.675-11.168,9.2-15.773c1.092-3.3,2.036-6.153,4.411-8.529l2.445-2.445A2.416,2.416,0,0,0,47.561,1.434ZM3.623,46.511a.822.822,0,0,1-1.137,0h0l-.641-.64a.806.806,0,0,1,0-1.138L3.72,42.856l.4.4h0L5.5,44.635Zm3.032-7.38a33.226,33.226,0,0,0,2.436-6c1.467-4.436,3.131-9.463,8.808-15.141s10.7-7.341,15.141-8.808a33.255,33.255,0,0,0,6-2.433c-1.775,1.309-3.761,2.534-5.818,3.8a67.479,67.479,0,0,0-13.059,9.7,67.476,67.476,0,0,0-9.7,13.057C9.191,35.367,7.965,37.355,6.654,39.131ZM38.525,10.968c-.7,1.075-1.386,2.187-2.086,3.323a66.193,66.193,0,0,1-9.471,12.763A66.2,66.2,0,0,1,14.2,36.526c-1.136.7-2.248,1.388-3.322,2.086ZM9.743,37.475c.7-1.075,1.386-2.187,2.086-3.323A66.189,66.189,0,0,1,21.3,21.388a66.193,66.193,0,0,1,12.765-9.472c1.136-.7,2.248-1.388,3.322-2.086ZM39.178,15.316h0c-1.468,4.436-3.131,9.463-8.808,15.141s-10.7,7.341-15.141,8.808a33.255,33.255,0,0,0-6,2.433c1.775-1.309,3.761-2.534,5.818-3.8a67.479,67.479,0,0,0,13.059-9.7,67.476,67.476,0,0,0,9.7-13.057c1.269-2.06,2.5-4.048,3.806-5.824A33.213,33.213,0,0,0,39.178,15.316ZM46.424,3.71,44.548,5.586l-.4-.4h0L42.769,3.807l1.876-1.876a.823.823,0,0,1,1.138,0l.641.64A.806.806,0,0,1,46.424,3.71Z" transform="translate(-0.001 -0.11)" fill="url(#linear-gradient)"/>
    </g>
  </g>
</svg>
