<svg xmlns="http://www.w3.org/2000/svg" xmlns:xlink="http://www.w3.org/1999/xlink" width="49.883" height="47.492" viewBox="0 0 49.883 47.492">
  <defs>
    <linearGradient id="linear-gradient" x1="0.5" x2="0.5" y2="1" gradientUnits="objectBoundingBox">
      <stop offset="0" stop-color="#8cc63f"/>
      <stop offset="1" stop-color="#1fb3b7"/>
    </linearGradient>
  </defs>
  <g id="stethoscope" transform="translate(0 -11.508)">
    <g id="Group_950" data-name="Group 950" transform="translate(0 11.508)">
      <g id="Group_949" data-name="Group 949">
        <path id="Path_462" data-name="Path 462" d="M49.823,38.12a5.82,5.82,0,0,0-4.929-4.929V31.68a7.338,7.338,0,0,0-7.067-7.566,7.366,7.366,0,0,0-7.067,7.339h.048l-.048.008V47.846c0,5.238-3.916,9.491-8.729,9.491S13.3,53.078,13.3,47.846V46.427c1.205,0,2.494-.874,2.494-3.326V41.01a11.79,11.79,0,0,0,9.145-11.14V28.136H23.279l-.035-10.82a4.161,4.161,0,0,0-3.42-4.07,2.481,2.481,0,1,0-.057,1.7,2.494,2.494,0,0,1,1.812,2.379l.037,10.815H19.953v1.758a6.611,6.611,0,0,1-4.785,6.2,7.56,7.56,0,0,1-4.573,0,6.608,6.608,0,0,1-4.775-6.2V28.136H3.326V17.328a2.494,2.494,0,0,1,1.846-2.4,2.506,2.506,0,1,0-.052-1.689,4.157,4.157,0,0,0-3.457,4.086V28.136H0v1.729A11.789,11.789,0,0,0,9.145,41.01V43.1c0,2.452,1.289,3.326,2.494,3.326v1.419C11.639,54,16.3,59,22.032,59s10.392-5.007,10.392-11.154V31.5a5.69,5.69,0,0,1,5.4-5.722,5.676,5.676,0,0,1,5.4,5.9v1.509a5.82,5.82,0,1,0,6.591,4.929ZM17.459,14.834A.831.831,0,1,1,18.29,14,.831.831,0,0,1,17.459,14.834ZM7.482,13.172A.831.831,0,1,1,6.651,14,.831.831,0,0,1,7.482,13.172ZM1.663,29.866V29.8H4.157v.095a8.261,8.261,0,0,0,5.934,7.784,9.251,9.251,0,0,0,5.585,0,8.262,8.262,0,0,0,5.939-7.784V29.8h1.663v.067c0,4.625-3.565,8.695-8.48,9.679a11.859,11.859,0,0,1-3.508.172,10.859,10.859,0,0,1-1.148-.174C5.228,38.56,1.663,34.491,1.663,29.866Zm9.977,14.9c-.748,0-.831-1.164-.831-1.663V41.337c.067.008.135.012.2.018.083.009.166.016.249.023.393.035.79.058,1.19.059h.042c.4,0,.795-.024,1.186-.059.083-.007.171-.014.257-.023.066-.007.134-.01.2-.018V43.1c0,.5-.083,1.663-.831,1.663ZM44.063,43.1a4.157,4.157,0,1,1,4.157-4.157A4.157,4.157,0,0,1,44.063,43.1Z" transform="translate(0 -11.508)" fill="url(#linear-gradient)"/>
      </g>
    </g>
    <g id="Group_952" data-name="Group 952" transform="translate(41.569 36.45)">
      <g id="Group_951" data-name="Group 951">
        <path id="Path_463" data-name="Path 463" d="M402.494,251.515a2.494,2.494,0,1,0,2.494,2.494A2.494,2.494,0,0,0,402.494,251.515Zm0,3.326a.831.831,0,1,1,.831-.831A.831.831,0,0,1,402.494,254.841Z" transform="translate(-400 -251.515)" fill="url(#linear-gradient)"/>
      </g>
    </g>
  </g>
</svg>
