<svg xmlns="http://www.w3.org/2000/svg" xmlns:xlink="http://www.w3.org/1999/xlink" width="46.167" height="45.819" viewBox="0 0 46.167 45.819">
  <defs>
    <linearGradient id="linear-gradient" x1="0.5" x2="0.5" y2="1" gradientUnits="objectBoundingBox">
      <stop offset="0" stop-color="#8cc63f"/>
      <stop offset="1" stop-color="#1fb3b7"/>
    </linearGradient>
  </defs>
  <g id="XMLID_1_" transform="translate(0 -0.181)">
    <path id="Path_465" data-name="Path 465" d="M14.462,9.09l16.947,3.366A2.842,2.842,0,0,1,33.7,15.265V34.886a2.882,2.882,0,0,1-2.885,2.885H13.5a.952.952,0,0,0,.962-.962v-.962H30.813a.965.965,0,0,0,.962-.962V15.265a.966.966,0,0,0-.75-.943l-16.562-3.27Z" transform="translate(12.469 8.229)" fill="url(#linear-gradient)"/>
    <path id="Path_466" data-name="Path 466" d="M21.809,14a.962.962,0,0,1,0,1.924H17.962a.962.962,0,1,1,0-1.924Z" transform="translate(15.701 12.764)" fill="url(#linear-gradient)"/>
    <path id="Path_467" data-name="Path 467" d="M21.809,17a.962.962,0,1,1,0,1.924H17.962a.962.962,0,1,1,0-1.924Z" transform="translate(15.701 15.535)" fill="url(#linear-gradient)"/>
    <path id="Path_468" data-name="Path 468" d="M21.809,20a.962.962,0,1,1,0,1.924H17.962a.962.962,0,1,1,0-1.924Z" transform="translate(15.701 18.306)" fill="url(#linear-gradient)"/>
    <path id="Path_469" data-name="Path 469" d="M14.924,36.892a.962.962,0,0,1-1.924,0V9.962a1.023,1.023,0,0,1,.346-.75,1.011,1.011,0,0,1,.808-.192l.769.154V36.892Z" transform="translate(12.007 8.146)" fill="url(#linear-gradient)"/>
    <path id="Path_470" data-name="Path 470" d="M16.233,23v.962a.952.952,0,0,0,.962.962H9.5a.952.952,0,0,0,.962-.962V23Z" transform="translate(8.774 21.076)" fill="url(#linear-gradient)"/>
    <path id="Path_471" data-name="Path 471" d="M12.809,5a.962.962,0,1,1,0,1.924H8.962A.962.962,0,1,1,8.962,5Z" transform="translate(7.389 4.451)" fill="url(#linear-gradient)"/>
    <path id="Path_472" data-name="Path 472" d="M13.771,8.962a.952.952,0,0,1-.962.962H8.962A.962.962,0,1,1,8.962,8h3.847A.952.952,0,0,1,13.771,8.962Z" transform="translate(7.389 7.222)" fill="url(#linear-gradient)"/>
    <path id="Path_473" data-name="Path 473" d="M12.809,11a.962.962,0,1,1,0,1.924H8.962a.962.962,0,1,1,0-1.924Z" transform="translate(7.389 9.993)" fill="url(#linear-gradient)"/>
    <path id="Path_474" data-name="Path 474" d="M12.809,14a.962.962,0,1,1,0,1.924H8.962a.962.962,0,1,1,0-1.924Z" transform="translate(7.389 12.764)" fill="url(#linear-gradient)"/>
    <path id="Path_475" data-name="Path 475" d="M8.771,14.962a.952.952,0,0,1-.962.962H3.962a.962.962,0,0,1,0-1.924H7.809A.952.952,0,0,1,8.771,14.962Z" transform="translate(2.771 12.764)" fill="url(#linear-gradient)"/>
    <path id="Path_476" data-name="Path 476" d="M7.809,5a.962.962,0,0,1,0,1.924H3.962A.962.962,0,1,1,3.962,5Z" transform="translate(2.771 4.451)" fill="url(#linear-gradient)"/>
    <path id="Path_477" data-name="Path 477" d="M7.809,8a.962.962,0,1,1,0,1.924H3.962A.962.962,0,1,1,3.962,8Z" transform="translate(2.771 7.222)" fill="url(#linear-gradient)"/>
    <path id="Path_478" data-name="Path 478" d="M7.809,11a.962.962,0,1,1,0,1.924H3.962a.962.962,0,1,1,0-1.924Z" transform="translate(2.771 9.993)" fill="url(#linear-gradient)"/>
    <path id="Path_479" data-name="Path 479" d="M13.618,19.885a.965.965,0,0,0-.962-.962H6.885a.952.952,0,0,0-.962.962v8.656H4V19.885A2.882,2.882,0,0,1,6.885,17h5.771a2.882,2.882,0,0,1,2.885,2.885v8.656H13.618Z" transform="translate(3.694 15.535)" fill="url(#linear-gradient)"/>
    <path id="Path_480" data-name="Path 480" d="M5.924,23h9.618v.962a.952.952,0,0,1-.962.962H4.962A.952.952,0,0,1,4,23.962V23Z" transform="translate(3.694 21.076)" fill="url(#linear-gradient)"/>
    <path id="Path_481" data-name="Path 481" d="M3.366.218,24.507,3.43a2.875,2.875,0,0,1,2.424,2.847V17.319l-.769-.154a1.011,1.011,0,0,0-.808.192,1.023,1.023,0,0,0-.346.75V6.277a.972.972,0,0,0-.808-.962L3.059,2.122A.533.533,0,0,0,2.885,2.1a.907.907,0,0,0-.616.231.92.92,0,0,0-.346.731v40.05a.965.965,0,0,0,.962.962H7.694v.962A.952.952,0,0,0,8.656,46H2.885A2.882,2.882,0,0,1,0,43.115V3.065A2.833,2.833,0,0,1,1.02.872,2.887,2.887,0,0,1,3.366.218Z" transform="translate(0 0)" fill="url(#linear-gradient)"/>
  </g>
</svg>
