<svg xmlns="http://www.w3.org/2000/svg" xmlns:xlink="http://www.w3.org/1999/xlink" width="52" height="52" viewBox="0 0 52 52">
  <defs>
    <linearGradient id="linear-gradient" x1="0.5" x2="0.5" y2="1" gradientUnits="objectBoundingBox">
      <stop offset="0" stop-color="#8cc63f"/>
      <stop offset="1" stop-color="#1fb3b7"/>
    </linearGradient>
  </defs>
  <g id="graduate" transform="translate(0 -0.841)">
    <g id="Group_944" data-name="Group 944" transform="translate(0 0.841)">
      <path id="Path_458" data-name="Path 458" d="M51.881,16.129a.861.861,0,0,0-.3-.306L26.437.96a.858.858,0,0,0-.874,0L.424,15.824a.865.865,0,0,0,0,1.488L4.1,19.484a4.28,4.28,0,0,0-.473,1.929V34.827a3.438,3.438,0,0,0-.244,6.588L.219,51.723A.862.862,0,0,0,1.314,52.8l5.164-1.727a.864.864,0,0,0,.574-.974L5.485,41.447a3.438,3.438,0,0,0-.14-6.62V21.413a2.561,2.561,0,0,1,.233-1.054l1.488.88V31.25c0,3.081,2.41,5.963,6.618,7.909A29.954,29.954,0,0,0,26,41.614a29.946,29.946,0,0,0,12.315-2.454c4.209-1.946,6.619-4.829,6.619-7.909V21.24l6.642-3.928A.865.865,0,0,0,51.881,16.129ZM2.356,50.627l1.913-6.238.956,5.279Zm3.85-12.468a1.721,1.721,0,1,1-1.721-1.727A1.724,1.724,0,0,1,6.205,38.159ZM43.213,31.25c0,2.378-2.048,4.689-5.62,6.341A28.209,28.209,0,0,1,26,39.886a28.217,28.217,0,0,1-11.594-2.3c-3.571-1.652-5.619-3.963-5.619-6.341V22.259l16.775,9.917a.858.858,0,0,0,.874,0l16.775-9.917V31.25ZM26,30.429,6.812,19.085a2.552,2.552,0,0,1,.8-.243L26.1,16.562a.864.864,0,0,0-.21-1.715L7.4,17.127a4.269,4.269,0,0,0-2.238.985L2.556,16.568,26,2.708l23.444,13.86Z" transform="translate(0 -0.841)" fill="url(#linear-gradient)"/>
    </g>
  </g>
</svg>
