<svg xmlns="http://www.w3.org/2000/svg" xmlns:xlink="http://www.w3.org/1999/xlink" width="58.647" height="42.926" viewBox="0 0 58.647 42.926">
  <defs>
    <linearGradient id="linear-gradient" x1="0.5" x2="0.5" y2="1" gradientUnits="objectBoundingBox">
      <stop offset="0" stop-color="#8cc63f"/>
      <stop offset="1" stop-color="#1fb3b7"/>
    </linearGradient>
  </defs>
  <g id="heart_1_" data-name="heart (1)" transform="translate(0 -56.4)">
    <g id="Group_953" data-name="Group 953" transform="translate(0 56.4)">
      <path id="Path_464" data-name="Path 464" d="M57.644,76.971H52.682c2.063-4.683,1.84-8.474,1.059-11.038A13.27,13.27,0,0,0,41.2,56.4a15.683,15.683,0,0,0-5.408,1,28.048,28.048,0,0,0-6.244,3.122A26.766,26.766,0,0,0,23.3,57.4a15.923,15.923,0,0,0-5.408-1A13.27,13.27,0,0,0,5.352,65.933c-.78,2.732-1.059,6.857,1.561,12.042H.892a.892.892,0,1,0,0,1.784h7.08a11.768,11.768,0,0,0,1,1.505c5.8,8.362,18.4,17.449,20.683,18.007v.056a.173.173,0,0,0,.111-.056h.167v-.056c1.951-.948,14.049-8.753,20.4-18.007A20.509,20.509,0,0,0,51.9,78.7h5.854a.881.881,0,0,0,.892-.892A.937.937,0,0,0,57.644,76.971Zm-8.92,3.289C42.815,88.9,31.944,95.87,29.6,97.375c-2.4-1.505-13.212-8.53-19.177-17.115l-.334-.5h8.2a.92.92,0,0,0,.836-.5L22.857,71.9l5.854,15a.913.913,0,0,0,.836.557H29.6a.888.888,0,0,0,.836-.669l5.129-17.561L38.3,78.086a.909.909,0,0,0,.725.613.965.965,0,0,0,.892-.39l2.174-3.178,1.84,3.122a.89.89,0,0,0,.78.446h5.017C49.393,79.257,49.059,79.759,48.724,80.26Zm2.007-3.289H45.268l-2.286-3.9a.89.89,0,0,0-.78-.446.844.844,0,0,0-.78.39l-1.9,2.787-3.066-9.979a1.034,1.034,0,0,0-.892-.669.954.954,0,0,0-.892.669l-5.185,17.9L23.86,69.334a.838.838,0,0,0-.78-.557.865.865,0,0,0-.836.5l-4.4,8.641H8.975c-2.23-4.07-2.843-7.972-1.84-11.484a11.389,11.389,0,0,1,10.815-8.2,14.83,14.83,0,0,1,4.794.892,27.1,27.1,0,0,1,6.3,3.233.848.848,0,0,0,1.115,0,24.3,24.3,0,0,1,6.3-3.233,13.477,13.477,0,0,1,4.794-.892,11.444,11.444,0,0,1,10.815,8.2C53.017,69.668,52.515,73.236,50.731,76.971Z" transform="translate(0 -56.4)" fill="url(#linear-gradient)"/>
    </g>
  </g>
</svg>
