<svg xmlns="http://www.w3.org/2000/svg" xmlns:xlink="http://www.w3.org/1999/xlink" viewBox="0 0."><defs><style>.cls-1{fill:none;}.cls-2{fill:#005270;}.cls-3{clip-path:url(#clip-path);}.cls-4{fill:url(#linear-gradient);}.cls-5{fill:#23bdbf;}.cls-6{opacity:0.27;}.cls-7{clip-path:url(#clip-path-2);}.cls-8{clip-path:url(#clip-path-3);}.cls-9{fill:#25b7c5;}</style><clipPath id="clip-path" transform="translate(3.51)"><path class="cls-1" d="M142.18,75.35s-14.77,30.51,36.31,85.37S168.1,278.56,168.1,278.56h0c26.45-20.51,35.22-29.7,40.62-44.88,6.79-19,8.6-38.83,1.85-57.87l-10.13-28.6"/></clipPath><linearGradient id="linear-gradient" x1="147.25" y1="2254.94" x2="196.05" y2="2407.72" gradientTransform="translate(3.51 -2166)" gradientUnits="userSpaceOnUse"><stop offset="0" stop-color="#176d80"/><stop offset="0.46" stop-color="#128799"/></linearGradient><clipPath id="clip-path-2" transform="translate(3.51)"><path class="cls-1" d="M137.75,172.62c-20-18.87-54.3-52.55-63.54-70.08,0,0-4.42,80.68,7.15,104.17,0,0-57.87-5.78-81.36-22.13,0,0,55.83,153.2,175,85.79,0,0,1.82-23.33-9.09-54.65A108.45,108.45,0,0,0,137.75,172.62Z"/></clipPath><clipPath id="clip-path-3" transform="translate(3.51)"><path class="cls-1" d="M78.6,189.13s69.73,29,87.49,65.6c0,0-26.1-36-87-48.43S4.74,159.07,4.74,159.07Z"/></clipPath></defs><g id="Layer_2" data-name="Layer 2"><g id="Layer_1-2" data-name="Layer 1"><path class="cls-2" d="M175.09,270.14s-27.83-26-64.85-25.53S55,265.28,8.63,257.37c0,0,26.29,43.41,69.7,51.58S156.49,301.54,175.09,270.14Z" transform="translate(3.51)"/><path class="cls-2" d="M174.92,270.41c26.54-14.6,42.68-52.66,36.91-81.09-5.43-26.82-25.16-42.58-44.23-60.19-8-7.37-15.54-15.44-20.48-25.11-7.63-15-10.8-40,12.27-40.92a42,42,0,0,1,24.78,7.09,43.55,43.55,0,0,0-49-24.47,29.84,29.84,0,0,0-23.68,26.06c-1.32,10.47,1.52,21,4.76,31,13.11,40.61,33.08,78.62,46.2,119.22a292,292,0,0,1,8,29.5" transform="translate(3.51)"/><g class="cls-3"><path class="cls-4" d="M174.92,270.41c26.68-14.6,42.9-52.47,37.11-80.9-5.47-26.82-25.3-42.59-44.48-60.2-8-7.36-15.62-15.44-20.59-25.1-7.72-15-10.86-40.09,12.34-40.92a42.3,42.3,0,0,1,24.91,7.09A43.87,43.87,0,0,0,134.92,45.9,29.9,29.9,0,0,0,111.09,72c-1.33,10.46,1.52,21,4.78,31,13.19,40.61,33.26,78.61,46.46,119.22a297.88,297.88,0,0,1,8,29.49" transform="translate(3.51)"/></g><path class="cls-2" d="M46.85,207.84S39.19,175,39.7,164.61c0,0,21.65,21,47.85,26.63S138,228,138,228,95.11,253.8,46.85,207.84Z" transform="translate(3.51)"/><path class="cls-5" d="M137.75,172.62c-20-18.87-54.3-52.55-63.54-70.08,0,0-4.42,80.68,7.15,104.17,0,0-57.87-5.78-81.36-22.13,0,0,55.83,153.2,175,85.79,0,0,1.82-23.33-9.09-54.65A108.45,108.45,0,0,0,137.75,172.62Z" transform="translate(3.51)"/><g class="cls-6"><g class="cls-7"><path class="cls-2" d="M175.09,270.14s-27.83-26-64.85-25.53S55,265.28,8.63,257.37c0,0,26.29,43.41,69.7,51.58S156.49,301.54,175.09,270.14Z" transform="translate(3.51)"/></g></g><path class="cls-1" d="M181.89,271.66c1-.61-1.79-12-2-13.08a172.83,172.83,0,0,0-8.4-32.11c-8.5-21.31-17.43-40.27-32.86-57.78a322.44,322.44,0,0,0-32.55-31.47c-6.89-5.92-25-18.13-24.19-29.72a269.75,269.75,0,0,0,0,97.4S40.76,206.55,5.5,189.56C5.57,189.6,70.63,342.21,181.89,271.66Z" transform="translate(3.51)"/><g class="cls-6"><g class="cls-8"><path class="cls-2" d="M136.4,171.39c-20.32-19.33-55.15-53.82-64.53-71.77,0,0-4.49,82.63,7.26,106.68,0,0-58.78-5.92-82.64-22.66,0,0,56.71,156.88,177.73,87.86,0,0,1.86-23.9-9.23-56A111.2,111.2,0,0,0,136.4,171.39Z" transform="translate(3.51)"/></g></g><path class="cls-9" d="M133.69,8.43a12,12,0,0,0-15-7.89l-.38.12a12,12,0,0,0,3.51,23.25,2.52,2.52,0,0,1,2.2,1.35l7.81,15L129,23.64a2.56,2.56,0,0,1,.92-2.41A12,12,0,0,0,133.69,8.43Z" transform="translate(3.51)"/><path class="cls-9" d="M111,27.92A6.79,6.79,0,1,0,110.54,39a1.44,1.44,0,0,1,1.46-.09l8.5,4.41-6.75-6.78a1.46,1.46,0,0,1-.36-1.42A6.77,6.77,0,0,0,111,27.92Z" transform="translate(3.51)"/></g></g></svg>