<svg xmlns="http://www.w3.org/2000/svg" xmlns:xlink="http://www.w3.org/1999/xlink" width="1636.542" height="1620.723" viewBox="0 0 1636.542 1620.723">
  <defs>
    <clipPath id="clip-path">
      <path id="Path_426" data-name="Path 426" d="M750.991,75.37s76.124,157.247-186.934,439.993,53.55,607.342,53.55,607.342H283.939L140.2,580.458,298.37,366.878" transform="translate(-140.195 -75.37)" fill="none"/>
    </clipPath>
    <linearGradient id="linear-gradient" x1="0.61" y1="0.195" x2="0.133" y2="0.873" gradientUnits="objectBoundingBox">
      <stop offset="0" stop-color="#176d80"/>
      <stop offset="0.46" stop-color="#128799"/>
    </linearGradient>
    <clipPath id="clip-path-2">
      <path id="Path_430" data-name="Path 430" d="M192.572,463.749c103.079-97.255,279.86-270.84,327.483-361.189,0,0,22.78,415.821-36.851,536.888,0,0,298.26-29.79,419.327-114.057,0,0-287.746,789.586-901.944,442.158,0,0-9.38-120.242,46.85-281.663A559.2,559.2,0,0,1,192.572,463.749Z" transform="translate(0 -102.56)" fill="none"/>
    </clipPath>
    <clipPath id="clip-path-3">
      <path id="Path_433" data-name="Path 433" d="M459.367,310.678S96.274,463.483,4.74,652.117c0,0,134.518-185.542,448.395-249.606s383.2-243.421,383.2-243.421Z" transform="translate(-4.74 -159.09)" fill="none"/>
    </clipPath>
  </defs>
  <g id="logo-element" transform="translate(13619.396 3004.511)">
    <path id="Path_454" data-name="Path 454" d="M-12668-2533.333s-1.333-132,0-186.667,265.334,68,306.667,305.333-196,308-196,308L-12668-2345.333Z" fill="transparent"/>
    <path id="Path_438" data-name="Path 438" d="M-5043.2,2004.8s13.2,98,13.2,99-44,32.6-49.4,33.2-38.2-25.4-34.8-30.4S-5043.2,2004.8-5043.2,2004.8Z" transform="translate(-7303 -4264)" fill="#005270"/>
    <path id="Path_439" data-name="Path 439" d="M-5085.333,1763.95l-6-38.617s146,190.552,124,341.221-143.333,0-143.333,0l34-151.3,7.333-72.169Z" transform="translate(-7303 -4242.333)" fill="#005270"/>
    <g id="Layer_2" data-name="Layer 2" transform="matrix(0.94, -0.342, 0.342, 0.94, -13752.229, -2739.623)">
      <g id="Layer_1" data-name="Layer 1" transform="translate(0 0)">
        <path id="Path_423" data-name="Path 423" d="M8.63,376.237s143.435-134,334.234-131.58,284.7,106.532,523.694,65.764c0,0-135.5,223.733-359.231,265.841S104.648,538.071,8.63,376.237Z" transform="translate(432.549 1016.083)" fill="#005270"/>
        <path id="Path_424" data-name="Path 424" d="M307.358,1208.032C170.572,1132.785,87.387,936.625,117.126,790.1,145.112,651.869,246.8,570.643,345.085,479.881,386.317,441.9,425.178,400.3,450.639,350.466,490.221,273.156,506.3,143.9,387.4,139.566a216.467,216.467,0,0,0-127.715,36.542A224.507,224.507,0,0,1,512.228,49.99,153.743,153.743,0,0,1,634.532,184.3c6.8,53.962-7.834,108.233-24.533,159.773-67.568,209.3-170.493,405.2-238.113,614.455a1517.948,1517.948,0,0,0-41.232,152.042" transform="translate(134.697 185.679)" fill="#005270"/>
        <g id="Group_912" data-name="Group 912" transform="translate(0 388.38)" clip-path="url(#clip-path)">
          <path id="Path_425" data-name="Path 425" d="M308.05,1207.328C170.542,1132.081,86.945,936.9,116.786,790.373c28.192-138.229,130.4-219.507,229.248-310.268,41.232-37.933,80.5-79.577,106.12-129.364,39.789-77.309,55.972-206.622-63.6-210.9a217.91,217.91,0,0,0-128.385,36.542A226.1,226.1,0,0,1,514.208,50.214,154.1,154.1,0,0,1,637.027,184.629c6.855,53.91-7.834,108.233-24.636,159.773C544.411,553.7,440.971,749.554,372.938,958.856a1521.736,1521.736,0,0,0-41.232,151.99" transform="translate(134.006 -201.998)" fill="url(#linear-gradient)"/>
        </g>
        <path id="Path_427" data-name="Path 427" d="M509.459,387.435S548.939,218.077,546.31,164.63c0,0-111.583,108.233-246.617,137.25S39.676,491.236,39.676,491.236,260.729,624.311,509.459,387.435Z" transform="translate(592.664 683.793)" fill="#005270"/>
        <path id="Path_428" data-name="Path 428" d="M192.572,463.749c103.079-97.255,279.86-270.84,327.483-361.189,0,0,22.78,415.821-36.851,536.888,0,0,298.26-29.79,419.327-114.057,0,0-287.746,789.586-901.944,442.158,0,0-9.38-120.242,46.85-281.663A559.2,559.2,0,0,1,192.572,463.749Z" transform="translate(441.056 425.957)" fill="#23bdbf"/>
        <g id="Group_914" data-name="Group 914" transform="translate(441.056 528.517)" opacity="0.27">
          <g id="Group_913" data-name="Group 913" clip-path="url(#clip-path-2)">
            <path id="Path_429" data-name="Path 429" d="M8.63,376.237s143.435-134,334.234-131.58,284.7,106.532,523.694,65.764c0,0-135.5,223.733-359.231,265.841S104.648,538.071,8.63,376.237Z" transform="translate(-8.507 487.566)" fill="#005270"/>
          </g>
        </g>
        <path id="Path_431" data-name="Path 431" d="M6.652,953.593C1.5,950.449,15.877,891.746,16.96,886.18A891.283,891.283,0,0,1,60.047,720.686c43.809-109.831,89.834-207.55,169.359-297.8A1661.845,1661.845,0,0,1,397.167,260.7c35.511-30.511,128.849-93.441,124.674-153.176a1390.276,1390.276,0,0,1,0,502s211.983,8.5,393.711-79.062C915.4,530.66,580.082,1317.205,6.652,953.593Z" transform="translate(399.481 446.56)" fill="none"/>
        <g id="Group_916" data-name="Group 916" transform="translate(487.565 819.87)" opacity="0.27">
          <g id="Group_915" data-name="Group 915" transform="translate(0)" clip-path="url(#clip-path-3)">
            <path id="Path_432" data-name="Path 432" d="M192.018,469.54C296.746,369.913,476.259,192.154,524.6,99.64c0,0,23.141,425.871-37.418,549.824,0,0,302.95-30.511,425.924-116.789,0,0-292.281,808.553-916.014,452.827,0,0-9.586-123.179,47.571-288.621A573.119,573.119,0,0,1,192.018,469.54Z" transform="translate(-38.997 -406.043)" fill="#005270"/>
          </g>
        </g>
        <path id="Path_434" data-name="Path 434" d="M113.17,43.492a61.355,61.355,0,1,1,61.281,79.783,13.091,13.091,0,0,0-11.339,6.958l-40.252,77.309L137.7,121.884a13.194,13.194,0,0,0-4.742-12.421A61.847,61.847,0,0,1,113.17,43.492Z" transform="translate(541.384 -0.014)" fill="#25b7c5"/>
        <path id="Path_435" data-name="Path 435" d="M149.013,33.853a35,35,0,1,1,2.371,57,7.422,7.422,0,0,0-7.525-.464L100.05,113.121l34.789-34.944a7.525,7.525,0,0,0,1.855-7.319,34.944,34.944,0,0,1,12.318-37.005Z" transform="translate(622.484 110.075)" fill="#25b7c5"/>
      </g>
    </g>
    <path id="Path_436" data-name="Path 436" d="M-5220.75,2060.621S-5061,1928.043-5085,1744.9c-4.632-35.347-3.25-38.4.75-33.275,17,24.5,68.179,319.43,30.25,350.432C-5101,2100.469-5220.75,2060.621-5220.75,2060.621Z" transform="translate(-7303 -4219.121)" fill="#005270"/>
  </g>
</svg>
