<svg xmlns="http://www.w3.org/2000/svg" width="42" height="42" viewBox="0 0 35 35">
  <g id="Group_1071" data-name="Group 1071" transform="translate(-1181 -4794)">
    <circle id="Ellipse_15" data-name="Ellipse 15" cx="17.5" cy="17.5" r="17.5" transform="translate(1181 4794)" fill="#23bbbf"/>
    <path id="paper-plane" d="M18.633,7.649a.309.309,0,0,0-.278-.11.3.3,0,0,0-.07.012L.23,12.462a.311.311,0,0,0-.016.6l6.607,2.165L6.23,19.951a.311.311,0,0,0,.5.286l2.418-1.852,2.12,3.028a.311.311,0,0,0,.255.133h.021a.311.311,0,0,0,.256-.169l6.87-13.39A.309.309,0,0,0,18.633,7.649ZM16.471,8.69,7.118,14.665,1.4,12.79ZM6.94,19.29l.43-3.442,1.418,2.026Zm4.54,1.343L7.6,15.095l10-6.386Z" transform="translate(1185.649 4800.43) rotate(-13)" fill="#fff"/>
  </g>
</svg>
