<svg xmlns="http://www.w3.org/2000/svg" xmlns:xlink="http://www.w3.org/1999/xlink" width="39.819" height="64.998" viewBox="0 0 39.819 64.998">
  <defs>
    <linearGradient id="linear-gradient" x1="0.5" x2="0.5" y2="1" gradientUnits="objectBoundingBox">
      <stop offset="0" stop-color="#8cc63f"/>
      <stop offset="1" stop-color="#1fb3b7"/>
    </linearGradient>
  </defs>
  <g id="bladder" transform="translate(-106 -39)">
    <path id="Path_527" data-name="Path 527" d="M145.819,42.513a3.513,3.513,0,0,0-7.027,0,3.517,3.517,0,0,1-3.513,3.513h-1.171a1.11,1.11,0,0,0-.184.037,29.158,29.158,0,0,0-13.544-.764,14.879,14.879,0,0,0-2.8.727H116.54a3.517,3.517,0,0,1-3.513-3.513,3.513,3.513,0,0,0-7.027,0,10.52,10.52,0,0,0,4.666,8.725,14.175,14.175,0,0,0-2.726,8.686c.184,7.361,4.858,11.023,8.911,13.392a9.316,9.316,0,0,1,3.373,3.345,4.7,4.7,0,0,0-.526,2.132,4.987,4.987,0,0,0,1.68,3.657v2.224a1.171,1.171,0,0,0,2.342,0V81.9a1.169,1.169,0,0,0-.468-.936,2.745,2.745,0,0,1-1.212-2.175,2.488,2.488,0,0,1,.488-1.431,1.169,1.169,0,0,0,.091-1.188,11.592,11.592,0,0,0-4.586-4.881c-5.311-3.1-7.628-6.522-7.751-11.428A12.246,12.246,0,0,1,120.74,47.613c7.189-1.126,13.421.035,17.1,3.18a10.863,10.863,0,0,1,3.7,8.675c0,5.2-2.483,8.9-8.052,11.993a10.305,10.305,0,0,0-4.313,4.716,1.173,1.173,0,0,0,.105,1.171,2.484,2.484,0,0,1,.5,1.443,2.742,2.742,0,0,1-1.212,2.174,1.173,1.173,0,0,0-.468.937v2.771a1.171,1.171,0,1,0,2.342,0V82.451a4.991,4.991,0,0,0,1.68-3.658,4.7,4.7,0,0,0-.544-2.169,7.875,7.875,0,0,1,3.051-3.115c6.314-3.508,9.256-7.969,9.256-14.04a13.82,13.82,0,0,0-2.561-8.347,10.554,10.554,0,0,0,4.5-8.609ZM112.2,49.442a8.185,8.185,0,0,1-3.856-6.929,1.171,1.171,0,0,1,2.342,0,5.854,5.854,0,0,0,3.438,5.318A14.836,14.836,0,0,0,112.2,49.442Zm25.525-1.625a5.852,5.852,0,0,0,3.411-5.3,1.171,1.171,0,0,1,2.342,0,8.21,8.21,0,0,1-3.744,6.857c-.126-.117-.24-.244-.372-.357A14.028,14.028,0,0,0,137.723,47.817Z" transform="translate(0 0)" fill="url(#linear-gradient)"/>
    <path id="Path_528" data-name="Path 528" d="M153.893,108.78a5.858,5.858,0,0,0-2.461,2.687,1.171,1.171,0,0,0,2.123.989,3.546,3.546,0,0,1,1.475-1.628c2.173-1.207,5.061-3.322,5.061-7.729a7.393,7.393,0,0,0-2.529-5.818c-2.287-1.958-6.017-2.7-10.236-2.043a8.088,8.088,0,0,0-6.887,8.109c.1,4.118,2.829,6.182,4.871,7.375a4.2,4.2,0,0,1,1.666,1.766,1.171,1.171,0,0,0,1.052.653,1.157,1.157,0,0,0,.516-.121,1.171,1.171,0,0,0,.534-1.568,6.536,6.536,0,0,0-2.586-2.753c-2.579-1.507-3.654-3.075-3.711-5.411a5.739,5.739,0,0,1,4.906-5.737c3.546-.554,6.584,0,8.351,1.508a5.054,5.054,0,0,1,1.71,4.038c0,2.481-1.153,4.18-3.855,5.682Z" transform="translate(-24.354 -39.606)" fill="url(#linear-gradient)"/>
    <path id="Path_529" data-name="Path 529" d="M157.485,203.493c-.916,1.143-5.485,7-5.485,10.143a6.4,6.4,0,1,0,12.8,0c0-3.14-4.57-9-5.486-10.143A1.212,1.212,0,0,0,157.485,203.493Zm.914,14.2a4.061,4.061,0,0,1-4.057-4.057c0-1.535,2.213-5.012,4.057-7.492,1.844,2.48,4.058,5.958,4.058,7.492A4.062,4.062,0,0,1,158.4,217.694Z" transform="translate(-32.532 -116.038)" fill="url(#linear-gradient)"/>
  </g>
</svg>
