<svg xmlns="http://www.w3.org/2000/svg" xmlns:xlink="http://www.w3.org/1999/xlink" width="58.028" height="56" viewBox="0 0 58.028 56">
  <defs>
    <linearGradient id="linear-gradient" x1="0.5" x2="0.5" y2="1" gradientUnits="objectBoundingBox">
      <stop offset="0" stop-color="#8cc63f"/>
      <stop offset="1" stop-color="#1fb3b7"/>
    </linearGradient>
  </defs>
  <g id="calendar" transform="translate(0 0)">
    <path id="Path_539" data-name="Path 539" d="M6.846,56H51.182a6.865,6.865,0,0,0,6.846-6.851v-37.2a6.887,6.887,0,0,0-6.846-6.877H49.159V1.028A1.05,1.05,0,0,0,48.118,0H38.472A.99.99,0,0,0,37.5,1.028V5.067H20.525V1.028A.99.99,0,0,0,19.556,0H9.91A1.05,1.05,0,0,0,8.869,1.028V5.067H6.846A6.887,6.887,0,0,0,0,11.945v37.2A6.865,6.865,0,0,0,6.846,56Zm44.336-2.027H6.846a4.835,4.835,0,0,1-4.818-4.824V19.131H56V49.149a4.835,4.835,0,0,1-4.818,4.824ZM39.53,2.027h7.6V9.249h-7.6Zm-28.634,0h7.6V9.249H10.9ZM6.846,7.095H8.869V10.28a1.022,1.022,0,0,0,1.041,1h9.646a.961.961,0,0,0,.969-1V7.095H37.5V10.28a.961.961,0,0,0,.969,1h9.646a1.022,1.022,0,0,0,1.041-1V7.095h2.023A4.858,4.858,0,0,1,56,11.945V17.1H2.028V11.945a4.858,4.858,0,0,1,4.818-4.85Zm0,0" transform="translate(0)" fill="url(#linear-gradient)"/>
    <path id="Path_540" data-name="Path 540" d="M137.662,183.822a1.013,1.013,0,0,0-1.328,0l-12.352,10.7a1.014,1.014,0,0,0,.664,1.78h1.819v12.549a.974.974,0,0,0,.984.986l18.847.148h.009a1.048,1.048,0,0,0,.739-.266.977.977,0,0,0,.326-.693V196.3h1.946a1.013,1.013,0,0,0,.665-1.779ZM137,185.929l9.607,8.341H127.366Zm2.139,22.012-4.181-.039v-4.89h4.181Zm6.208.057-4.181-.038v-5.914a1.06,1.06,0,0,0-1.02-1.061h-6.223a1.038,1.038,0,0,0-.993,1.061v5.837l-4.434-.042V196.3h16.851Zm0,0" transform="translate(-107.968 -160.316)" fill="url(#linear-gradient)"/>
  </g>
</svg>
