<svg xmlns="http://www.w3.org/2000/svg" xmlns:xlink="http://www.w3.org/1999/xlink" width="72.741" height="45.712" viewBox="0 0 72.741 45.712">
  <defs>
    <linearGradient id="linear-gradient" x1="0.5" x2="0.5" y2="1" gradientUnits="objectBoundingBox">
      <stop offset="0"/>
      <stop offset="0" stop-color="#8cc63f"/>
      <stop offset="1" stop-color="#1fb3b7"/>
    </linearGradient>
  </defs>
  <g id="impotence" transform="translate(-173.6 -43.107)">
    <path id="Path_521" data-name="Path 521" d="M182.77,193.868c-3.742-5.65-8.463-9.123-14.064-10.3-8.389-1.786-16.241,2.055-19.127,3.718a23,23,0,1,0,3.106,2.642c6.041-3.033,11.618-3.816,16.559-2.348a19.6,19.6,0,0,1,10.542,8.243l-3.3,2.421,8.561,3.742,1.3-10.3Zm-46.325,31.748A19.665,19.665,0,1,1,156.11,205.95,19.682,19.682,0,0,1,136.445,225.616Z" transform="translate(60 -140)" fill="url(#linear-gradient)"/>
  </g>
</svg>
