<svg xmlns="http://www.w3.org/2000/svg" xmlns:xlink="http://www.w3.org/1999/xlink" width="55.979" height="55.978" viewBox="0 0 55.979 55.978">
  <defs>
    <linearGradient id="linear-gradient" x1="0.5" x2="0.5" y2="1" gradientUnits="objectBoundingBox">
      <stop offset="0" stop-color="#8cc63f"/>
      <stop offset="1" stop-color="#1fb3b7"/>
    </linearGradient>
  </defs>
  <g id="cancer" transform="translate(0 0.002)">
    <path id="Path_550" data-name="Path 550" d="M52.644,22.794a3.339,3.339,0,0,0-3.335,3.335v1.093H45.639a5.223,5.223,0,0,0-2.34-3.64,3.329,3.329,0,0,1-1.369-3.307,5.224,5.224,0,0,0-.918-4.227l2.595-2.595.773.773A3.335,3.335,0,1,0,49.1,9.51L46.468,6.882A3.335,3.335,0,1,0,41.751,11.6l.773.773-2.594,2.595a5.221,5.221,0,0,0-4.227-.918,3.134,3.134,0,0,1-1.87-.21,3.089,3.089,0,0,1-1.437-1.16,5.223,5.223,0,0,0-3.64-2.34V6.668h1.093a3.336,3.336,0,1,0,0-6.669H26.13a3.335,3.335,0,1,0,0,6.671h1.093v3.669a5.223,5.223,0,0,0-3.64,2.34,3.33,3.33,0,0,1-3.307,1.37,5.224,5.224,0,0,0-4.227.918l-2.593-2.6.773-.773A3.335,3.335,0,1,0,9.512,6.882L6.884,9.51A3.335,3.335,0,0,0,11.6,14.226l.773-.773,2.595,2.6a5.223,5.223,0,0,0-.918,4.226,3.134,3.134,0,0,1-.209,1.871,3.089,3.089,0,0,1-1.16,1.437,5.223,5.223,0,0,0-2.34,3.64H6.672V26.129a3.336,3.336,0,1,0-6.672,0v3.717a3.335,3.335,0,1,0,6.671,0V28.753H10.34a5.223,5.223,0,0,0,2.34,3.64A3.329,3.329,0,0,1,14.049,35.7a5.225,5.225,0,0,0,.918,4.227l-2.595,2.594-.773-.773a3.335,3.335,0,1,0-4.717,4.717l2.628,2.627a3.335,3.335,0,1,0,4.717-4.717l-.772-.775,2.594-2.593a5.221,5.221,0,0,0,4.227.918,3.127,3.127,0,0,1,1.871.209A3.089,3.089,0,0,1,23.585,43.3a5.223,5.223,0,0,0,3.64,2.34V49.3H26.131a3.335,3.335,0,1,0,0,6.671h3.717a3.335,3.335,0,1,0,0-6.671H28.755V45.635a5.223,5.223,0,0,0,3.64-2.34A3.329,3.329,0,0,1,35.7,41.926a5.226,5.226,0,0,0,4.227-.918L42.523,43.6l-.773.773a3.335,3.335,0,0,0,4.717,4.717L49.1,46.464a3.335,3.335,0,1,0-4.717-4.717l-.773.773-2.595-2.591A5.224,5.224,0,0,0,41.93,35.7a3.134,3.134,0,0,1,.209-1.871,3.088,3.088,0,0,1,1.16-1.437,5.223,5.223,0,0,0,2.34-3.64h3.669v1.093a3.335,3.335,0,1,0,6.671,0V26.13A3.339,3.339,0,0,0,52.644,22.794ZM42.833,7.964a1.807,1.807,0,0,1,2.552,0l2.628,2.628a1.8,1.8,0,1,1-2.552,2.552l-1.312-1.312h0L42.837,10.52A1.807,1.807,0,0,1,42.833,7.964Zm-31,3.865h0l-1.312,1.312a1.8,1.8,0,1,1-2.552-2.552L10.6,7.962a1.8,1.8,0,1,1,2.552,2.552ZM5.142,29.846a1.8,1.8,0,1,1-3.61,0V26.128a1.8,1.8,0,1,1,3.61,0Zm8,18.165a1.807,1.807,0,0,1-2.552,0L7.967,45.383a1.8,1.8,0,1,1,2.552-2.552l1.312,1.312h0l1.312,1.312a1.807,1.807,0,0,1,0,2.556Zm31-3.865h0l1.312-1.312a1.8,1.8,0,1,1,2.552,2.552l-2.628,2.627a1.8,1.8,0,1,1-2.552-2.552ZM26.132,5.138a1.8,1.8,0,1,1,0-3.61h3.717a1.8,1.8,0,1,1,0,3.61Zm3.717,45.7a1.8,1.8,0,1,1,0,3.61H26.132a1.8,1.8,0,1,1,0-3.61ZM42.468,31.106a4.859,4.859,0,0,0-2.035,4.914,3.71,3.71,0,0,1-4.411,4.411,4.857,4.857,0,0,0-4.914,2.033,3.71,3.71,0,0,1-6.238,0,4.636,4.636,0,0,0-2.163-1.749,4.786,4.786,0,0,0-1.84-.378,4.333,4.333,0,0,0-.911.1,3.71,3.71,0,0,1-4.411-4.413,4.858,4.858,0,0,0-2.035-4.914,3.71,3.71,0,0,1,0-6.238,4.859,4.859,0,0,0,2.035-4.914,3.71,3.71,0,0,1,4.411-4.411,4.854,4.854,0,0,0,4.914-2.035,3.71,3.71,0,0,1,6.238,0,4.859,4.859,0,0,0,4.914,2.035,3.71,3.71,0,0,1,4.411,4.411,4.858,4.858,0,0,0,2.035,4.914,3.71,3.71,0,0,1,0,6.238Zm11.98-1.261a1.8,1.8,0,1,1-3.61,0V26.128a1.8,1.8,0,1,1,3.61,0Z" transform="translate(0)" fill="url(#linear-gradient)"/>
    <path id="Path_551" data-name="Path 551" d="M58.3,53.875A4.427,4.427,0,1,0,62.732,58.3,4.427,4.427,0,0,0,58.3,53.875Zm0,7.323A2.9,2.9,0,1,1,61.2,58.3,2.9,2.9,0,0,1,58.3,61.2Z" transform="translate(-30.315 -30.314)" fill="url(#linear-gradient)"/>
    <path id="Path_552" data-name="Path 552" d="M59.9,41.218a3.185,3.185,0,1,0-3.185-3.185A3.185,3.185,0,0,0,59.9,41.218Zm0-4.839a1.654,1.654,0,1,1-1.654,1.654A1.654,1.654,0,0,1,59.9,36.379Z" transform="translate(-31.912 -19.609)" fill="url(#linear-gradient)"/>
    <path id="Path_553" data-name="Path 553" d="M59.9,78.581a3.185,3.185,0,1,0,3.185,3.185A3.185,3.185,0,0,0,59.9,78.581Zm0,4.839a1.654,1.654,0,1,1,1.654-1.654A1.654,1.654,0,0,1,59.9,83.42Z" transform="translate(-31.914 -44.216)" fill="url(#linear-gradient)"/>
    <path id="Path_554" data-name="Path 554" d="M81.768,56.714A3.185,3.185,0,1,0,84.952,59.9,3.185,3.185,0,0,0,81.768,56.714Zm0,4.84A1.654,1.654,0,1,1,83.422,59.9,1.654,1.654,0,0,1,81.768,61.554Z" transform="translate(-44.215 -31.912)" fill="url(#linear-gradient)"/>
    <path id="Path_555" data-name="Path 555" d="M38.036,56.714A3.185,3.185,0,1,0,41.221,59.9,3.185,3.185,0,0,0,38.036,56.714Zm0,4.84A1.654,1.654,0,1,1,39.691,59.9,1.654,1.654,0,0,1,38.036,61.554Z" transform="translate(-19.609 -31.912)" fill="url(#linear-gradient)"/>
  </g>
</svg>
